<svg width="64" height="64" viewBox="0 0 64 64" fill="none" xmlns="http://www.w3.org/2000/svg">
<path d="M32.25 42.0625C32.25 42.3375 32.4625 42.5625 32.7188 42.5625H44.2812C44.5375 42.5625 44.75 42.3375 44.75 42.0625V39.0625C44.75 38.7875 44.5375 38.5625 44.2812 38.5625H32.7188C32.4625 38.5625 32.25 38.7875 32.25 39.0625V42.0625ZM20.0688 42.4437L32.0687 32.3812C32.3062 32.1812 32.3062 31.8125 32.0687 31.6125L20.0688 21.5562C19.9963 21.4946 19.9077 21.4551 19.8135 21.4424C19.7192 21.4296 19.6233 21.4442 19.5371 21.4843C19.4509 21.5245 19.378 21.5885 19.3271 21.6688C19.2763 21.7492 19.2495 21.8424 19.25 21.9375V25.8563C19.25 26.0063 19.3125 26.1437 19.4312 26.2375L26.2938 32L19.4312 37.7625C19.3754 37.8093 19.3303 37.8675 19.299 37.9333C19.2677 37.9991 19.251 38.0709 19.25 38.1437V42.0625C19.25 42.4875 19.7438 42.7187 20.0688 42.4437ZM55 7H9C7.89375 7 7 7.89375 7 9V55C7 56.1063 7.89375 57 9 57H55C56.1063 57 57 56.1063 57 55V9C57 7.89375 56.1063 7 55 7ZM52.5 52.5H11.5V11.5H52.5V52.5Z" fill="black"/>
</svg>
