<svg width="64" height="64" viewBox="0 0 64 64" fill="none" xmlns="http://www.w3.org/2000/svg">
<path d="M16 30.9511V48H33.0489L29.4933 44.4444H19.5556V34.5067L16 30.9511Z" fill="black"/>
<path d="M61.9911 57.4044L56.8889 52.2311V56.8889H7.11113V49.5111H10.6667V46.6667H7.11113V34.8444H10.6667V32H7.11113V20.6222H10.6667V17.7778H7.11113V7.84L35.4489 36.0178V31.0044L6.59557 2.29334C6.34691 2.04262 6.02922 1.87163 5.683 1.80217C5.33679 1.73271 4.97773 1.76794 4.65161 1.90334C4.32548 2.03875 4.04707 2.26821 3.85187 2.56247C3.65667 2.85672 3.55352 3.20245 3.55557 3.55556V58.6667C3.55557 59.1382 3.74287 59.5904 4.07627 59.9237C4.40967 60.2571 4.86185 60.4444 5.33335 60.4444H60.7289C61.082 60.4465 61.4277 60.3433 61.722 60.1481C62.0163 59.9529 62.2457 59.6745 62.3811 59.3484C62.5165 59.0223 62.5517 58.6632 62.4823 58.317C62.4128 57.9708 62.2418 57.6531 61.9911 57.4044V57.4044Z" fill="black"/>
<path d="M42.6666 53.3333H49.7778C50.7207 53.3333 51.6251 52.9587 52.2919 52.2919C52.9587 51.6251 53.3333 50.7208 53.3333 49.7778V15.4667L49.2444 7.94667C48.9282 7.3988 48.4715 6.94521 47.9215 6.6327C47.3715 6.3202 46.7481 6.16009 46.1155 6.16889C45.4687 6.17403 44.8355 6.35553 44.2841 6.69386C43.7328 7.03218 43.2842 7.51451 42.9866 8.08889L39.1111 15.5022V49.7778C39.1111 50.7208 39.4857 51.6251 40.1525 52.2919C40.8193 52.9587 41.7236 53.3333 42.6666 53.3333ZM42.6666 16.3556L46.1155 9.65334L49.7778 16.3733V42.6667H42.6666V16.3556ZM42.6666 45.5644H49.7778V49.9022H42.6666V45.5644Z" fill="black"/>
</svg>
