<svg width="16" height="16" viewBox="0 0 16 16" fill="none" xmlns="http://www.w3.org/2000/svg">
<path d="M7.97502 0.5C4.70002 0.5 1.92502 2.6 0.900024 5.5H15.05C14.025 2.6 11.25 0.5 7.97502 0.5Z" fill="#3E4347"/>
<path d="M7.97502 15.5C11.25 15.5 14.025 13.425 15.05 10.5H0.900024C1.92502 13.425 4.70002 15.5 7.97502 15.5V15.5Z" fill="#FFE62E"/>
<path d="M0.899976 5.5C0.624976 6.275 0.474976 7.125 0.474976 8C0.474976 8.875 0.624976 9.725 0.899976 10.5H15.05C15.325 9.725 15.475 8.875 15.475 8C15.475 7.125 15.325 6.275 15.05 5.5H0.899976Z" fill="#ED4C5C"/>
</svg>
