<svg width="68" height="32" viewBox="0 0 68 32" fill="none" xmlns="http://www.w3.org/2000/svg">
<rect x="1" y="1" width="66" height="30" rx="15" fill="#0A1821" stroke="white" stroke-width="2"/>
<circle cx="16" cy="16" r="12" fill="white"/>
<circle cx="50" cy="16" r="10" fill="#FCE903"/>
<circle cx="47" cy="14" r="10" fill="#0A1821"/>
<path d="M37.5 16L38.0613 17.7275H39.8776L38.4082 18.7951L38.9695 20.5225L37.5 19.4549L36.0305 20.5225L36.5918 18.7951L35.1224 17.7275H36.9387L37.5 16Z" fill="#FCE903"/>
<path d="M36 6L36.449 7.38197H37.9021L36.7265 8.23607L37.1756 9.61803L36 8.76393L34.8244 9.61803L35.2735 8.23607L34.0979 7.38197H35.551L36 6Z" fill="#FCE903"/>
<path d="M45.5 11L45.8368 12.0365H46.9266L46.0449 12.6771L46.3817 13.7135L45.5 13.0729L44.6183 13.7135L44.9551 12.6771L44.0734 12.0365H45.1632L45.5 11Z" fill="#FCE903"/>
</svg>
